# xmcd CD database file generated by OrangeCD 5.2
#
# Track frame offsets:
#	150
#	13901
#	32266
#	41490
#	57645
#	89094
#	100377
#	115194
#	127271
#	141007
#	153562
#	172188
#
# Disc length: 2549 seconds
#
# Revision: 0
# Processed by: cddbd v1.5.2PL0 Copyright (c) Steve Scherf et al.
# Submitted via: OrangeCD 5.2
#
DISCID=ad09f30c
DTITLE=Alan Jackson - Under the Influence
DYEAR=1900
DGENRE=Country
TTITLE0=Pop a top
TTITLE1=Farewell party
TTITLE2=Kiss an angel good morning
TTITLE3=Right in the palm of your hand
TTITLE4=The blues man
TTITLE5=Revenooer man
TTITLE6=My own kind of hat
TTITLE7=She just started liking cheating songs
TTITLE8=The way I am
TTITLE9=It must be love
TTITLE10=Once you've had the best
TTITLE11=Margaritaville (with Jimmy Buffet)
EXTD=
EXTT0=
EXTT1=
EXTT2=
EXTT3=
EXTT4=
EXTT5=
EXTT6=
EXTT7=
EXTT8=
EXTT9=
EXTT10=
EXTT11=
PLAYORDER=
